<?xml version="1.0" encoding="utf-8"?>
<!-- Generator: Adobe Illustrator 27.7.0, SVG Export Plug-In . SVG Version: 6.00 Build 0)  -->
<svg version="1.1" id="圖層_1" xmlns="http://www.w3.org/2000/svg" xmlns:xlink="http://www.w3.org/1999/xlink" x="0px" y="0px"
	 viewBox="0 0 32 32" style="enable-background:new 0 0 32 32;" xml:space="preserve">
<path d="M21.77,19.65C23.17,17.81,24,15.5,24,13c0-6.08-4.92-11-11-11S2,6.92,2,13c0,6.08,4.92,11,11,11c2.5,0,4.81-0.83,6.65-2.23
	L27.88,30L30,27.88L21.77,19.65z M13,21c-4.41,0-8-3.59-8-8c0-4.41,3.59-8,8-8s8,3.59,8,8C21,17.41,17.41,21,13,21z"/>
</svg>
