<?xml version="1.0" encoding="utf-8"?>
<!-- Generator: Adobe Illustrator 27.7.0, SVG Export Plug-In . SVG Version: 6.00 Build 0)  -->
<svg version="1.1" id="圖層_1" xmlns="http://www.w3.org/2000/svg" xmlns:xlink="http://www.w3.org/1999/xlink" x="0px" y="0px"
	 viewBox="0 0 32 32" style="enable-background:new 0 0 32 32;" xml:space="preserve">
<path d="M21.24,7.5l-2.08,2.08L15.74,13l-2.12-2.12l1.87-1.87C10.76,9.28,7,13.21,7,18c0,4.45,3.25,8.16,7.5,8.88v3.02
	C8.59,29.17,4,24.11,4,18C4,11.54,9.12,6.26,15.52,6.02l-1.9-1.9L15.74,2l4.93,4.94c0,0.01,0.01,0.01,0.02,0.01L21.24,7.5z
	 M25.26,10.37l-2.14,2.13c0.78,1.02,1.36,2.21,1.66,3.5h3.05C27.48,13.89,26.57,11.96,25.26,10.37z M24.94,19
	c-0.15,1.43-0.65,2.76-1.41,3.91l2.16,2.16c1.27-1.73,2.08-3.81,2.27-6.07H24.94z M21.5,25.12c-1.15,0.89-2.51,1.5-4,1.76v3.02
	c2.31-0.28,4.42-1.23,6.13-2.64L21.5,25.12z"/>
</svg>
