<?xml version="1.0" encoding="utf-8"?>
<!-- Generator: Adobe Illustrator 27.7.0, SVG Export Plug-In . SVG Version: 6.00 Build 0)  -->
<svg version="1.1" id="圖層_1" xmlns="http://www.w3.org/2000/svg" xmlns:xlink="http://www.w3.org/1999/xlink" x="0px" y="0px"
	 viewBox="0 0 32 32" style="enable-background:new 0 0 32 32;" xml:space="preserve">
<path d="M25.5,4H22V2h-3v2h-6V2h-3v2H6.5C5.12,4,4,5.12,4,6.5v19C4,26.88,5.12,28,6.5,28h19c1.38,0,2.5-1.12,2.5-2.5v-19
	C28,5.12,26.88,4,25.5,4z M7,7h3v2h3V7h6v2h3V7h3v5.5H7V7z M25,25H7v-9.5h18V25z"/>
</svg>
