<?xml version="1.0" encoding="utf-8"?>
<!-- Generator: Adobe Illustrator 27.7.0, SVG Export Plug-In . SVG Version: 6.00 Build 0)  -->
<svg version="1.1" id="圖層_1" xmlns="http://www.w3.org/2000/svg" xmlns:xlink="http://www.w3.org/1999/xlink" x="0px" y="0px"
	 viewBox="0 0 32 32" style="enable-background:new 0 0 32 32;" xml:space="preserve">
<path d="M28,18c0,6.11-4.59,11.17-10.5,11.9v-3.02C21.75,26.16,25,22.45,25,18c0-4.79-3.76-8.72-8.49-8.99l1.87,1.87L16.26,13
	l-3.42-3.42L10.76,7.5l0.55-0.55c0.01,0,0.02,0,0.02-0.01L16.26,2l2.12,2.12l-1.9,1.9C22.88,6.26,28,11.54,28,18z M10.5,25.12
	l-2.13,2.14c1.71,1.41,3.82,2.36,6.13,2.64v-3.02C13.01,26.62,11.65,26.01,10.5,25.12z M7.06,19H4.04c0.19,2.26,1,4.34,2.27,6.07
	l2.16-2.16C7.71,21.76,7.21,20.43,7.06,19z M6.74,10.37C5.43,11.96,4.52,13.89,4.17,16h3.05c0.3-1.29,0.88-2.48,1.66-3.5L6.74,10.37
	z"/>
</svg>
