<?xml version="1.0" encoding="utf-8"?>
<!-- Generator: Adobe Illustrator 27.7.0, SVG Export Plug-In . SVG Version: 6.00 Build 0)  -->
<svg version="1.1" id="圖層_1" xmlns="http://www.w3.org/2000/svg" xmlns:xlink="http://www.w3.org/1999/xlink" x="0px" y="0px"
	 viewBox="0 0 32 32" style="enable-background:new 0 0 32 32;" xml:space="preserve">
<path d="M9,16c0,1.38-1.12,2.5-2.5,2.5S4,17.38,4,16s1.12-2.5,2.5-2.5S9,14.62,9,16z M16,13.5c-1.38,0-2.5,1.12-2.5,2.5
	s1.12,2.5,2.5,2.5s2.5-1.12,2.5-2.5S17.38,13.5,16,13.5z M25.5,13.5c-1.38,0-2.5,1.12-2.5,2.5s1.12,2.5,2.5,2.5S28,17.38,28,16
	S26.88,13.5,25.5,13.5z"/>
</svg>
